<svg width="40" height="40" viewBox="0 0 40 40" xmlns="http://www.w3.org/2000/svg"><title>18PLUS</title><path d="M19.317 15.032c0-2.29.76-2.972 2.66-2.972 1.9 0 2.662.683 2.662 2.972 0 2.22-.762 2.973-2.663 2.973-1.9 0-2.66-.752-2.66-2.973zm2.66 6.15c-2.21 0-3.005.99-3.005 3.143 0 2.153.795 3.007 3.005 3.007 2.212 0 3.007-.854 3.007-3.007 0-2.152-.795-3.143-3.007-3.143zm14.652-3.314v-1.606c0-1.195-.174-1.81-1.21-1.81H34.38c-1.036 0-1.21.615-1.21 1.81v1.606H31.55c-1.21 0-1.832.17-1.832 1.196v1.093c0 1.025.622 1.196 1.83 1.196h1.625v1.606c0 1.195.173 1.81 1.21 1.81h1.036c1.036 0 1.21-.615 1.21-1.81v-1.607h2.314c.45 0 .69.24.725.683v5.194c0 1.263-.38 2.22-1.28 3.074l-7.704 7.62c-.9.887-1.9 1.297-3.144 1.297H12.13c-1.244 0-2.246-.41-3.144-1.297l-7.705-7.62c-.898-.887-1.313-1.81-1.278-3.073V12.163c0-1.264.415-2.358 1.348-3.28l7.843-7.858C9.988.24 10.99 0 12.13 0h15.412c1.14 0 2.14.24 2.936 1.025l7.844 7.858c.898.922 1.347 2.016 1.347 3.28v4.92c0 .512-.243.785-.726.785H36.63zm-23.768-7.38c0-.99-.623-1.195-1.832-1.195H7.886c-1.21 0-1.832.205-1.832 1.196v1.126c0 .99.623 1.195 1.832 1.195h.725c.45 0 .657.24.657.924v14.76c0 1.195.208 1.81 1.21 1.81h1.175c1.002 0 1.21-.615 1.21-1.81V10.488zm15.68 14.316c0-2.562-.17-4.51-2.487-5.4 1.935-1.4 1.97-2.834 1.97-3.995v-1.163c-.208-3.86-1.52-5.33-6.048-5.33-4.525 0-5.838 1.47-6.046 5.33v1.162c0 1.16.036 2.595 1.97 3.995-2.314.89-2.487 2.837-2.487 5.4 0 3.79 1.347 5.67 6.564 5.773 5.218-.103 6.566-1.982 6.566-5.774z" fill="#B2B2B2" fill-rule="evenodd"/></svg>